<?xml version="1.0" encoding="UTF-8"?><svg id="Layer_1" xmlns="http://www.w3.org/2000/svg" width="700.51" height="1123.04" viewBox="0 0 700.51 1123.04"><defs><style>.cls-1{letter-spacing:-.01em;}.cls-2{letter-spacing:.1em;}.cls-3,.cls-4{font-family:LINES-Regular, LINES;}.cls-3,.cls-4,.cls-5{font-size:49.36px;}.cls-3,.cls-6,.cls-5{fill:#fec40e;}.cls-4,.cls-7,.cls-8{fill:#231f20;}.cls-9{fill:#010101;}.cls-10{fill:#fff;}.cls-11{fill:#50c8ef;}.cls-12{stroke-width:1.7px;}.cls-12,.cls-13{fill:none;stroke:#fec40e;stroke-miterlimit:10;}.cls-14{letter-spacing:.08em;}.cls-15{letter-spacing:.08em;}.cls-16{letter-spacing:0em;}.cls-17{letter-spacing:.05em;}.cls-18{letter-spacing:0em;}.cls-19{letter-spacing:.02em;}.cls-20{letter-spacing:0em;}.cls-21{letter-spacing:.01em;}.cls-22{letter-spacing:.09em;}.cls-5{font-family:ArgonPERSONAL-Regular, 'Argon PERSONAL';}.cls-7{font-family:MyriadPro-Regular, 'Myriad Pro';font-size:12px;}.cls-23{letter-spacing:.11em;}.cls-24{letter-spacing:0em;}.cls-8{font-family:Merriweather-BoldItalic, Merriweather;font-size:8px;}.cls-25{letter-spacing:0em;}</style></defs><path class="cls-9" d="M83.76,238.64l-.04,6.81c0,.71-.41,1.61-1.12,1.61s-1.12-.9-1.12-1.61l-.04-6.81H35.88v16.62h93.44v-16.62h-45.56Z"/><path class="cls-9" d="M114.65,220.26c-.09-.03-8.9-2.62-16.14-7.2-6.38-4.04-8.85-7.69-9.35-8.52v-4.63c3.77,.92,9.35,1.12,13.41,1.12,1.94,0,3.26-.05,3.27-.05l.65-.02-.49-.43c-.06-.05-5.37-4.64-10.69-6.99h8.52c1.03,0,1.87-.84,1.87-1.88s-.84-1.88-1.87-1.88h-14.67v-3.82c0-.57-.37-1.07-.91-1.24-.54-.17-1.14,.04-1.46,.5l-2.75,3.95,.11-18.89c3.03-.71,5.21-3.44,5.21-6.57,0-3.72-3.03-6.75-6.75-6.75s-6.75,3.03-6.75,6.75c0,3.14,2.18,5.87,5.22,6.57l.12,19.5h-3.03v-1.82c0-.78-.63-1.41-1.41-1.41-.06,0-.11,0-.17,.01h-.15c-6.53,.17-12.54,4.25-12.54,9.29,0,1.83,.68,3.58,1.97,5.09h-.01c-1.3,0-2.51,.61-3.28,1.64l-.04-.02c-2.4-1.15-3.76-2.66-3.77-2.67-.27-.31-.66-.48-1.06-.48-.34,0-.67,.12-.93,.35-.59,.51-.65,1.41-.14,1.99,.07,.08,1.72,1.94,4.68,3.36,.16,.08,.31,.14,.45,.21,.05,.74,.29,1.44,.71,2.05-.08,.09-.15,.19-.2,.3,0,.02-.96,1.98-2.55,4.04l-3.79,3.76c-2.47,1.95-5.26,3.66-5.29,3.68-.32,.19-.55,.51-.64,.87-.09,.37-.03,.75,.17,1.07,.26,.43,.71,.68,1.21,.68,.26,0,.51-.07,.73-.21,.52-.32,5.18-3.19,7.97-5.98,2.35-2.35,3.95-5.18,4.51-6.26v11.72c0,.78,.63,1.41,1.41,1.41s1.41-.63,1.41-1.41v-12.21c1.53-.63,2.73-2.13,2.73-3.79,0-.42-.06-.83-.19-1.22,.22,.1,.44,.2,.67,.29v16.94c0,.78,.63,1.41,1.41,1.41s1.41-.63,1.41-1.41v-25.67h1.89v25.67c0,.78,.63,1.41,1.41,1.41s1.41-.63,1.41-1.41v-18.42l3.09-3.01,.24,39.02v.26h2.25l.23-40.63c.88,.33,1.74,.62,2.57,.89v5.72c0,.2,.05,.4,.13,.58,.09,.19,2.38,4.72,10.44,9.81,7.6,4.81,16.44,7.4,16.81,7.5,.12,.03,.24,.05,.36,.05,.58,0,1.09-.39,1.25-.94,.2-.69-.2-1.42-.89-1.62Z"/><rect class="cls-9" x="0" y="344.65" width="167.91" height="4.04" rx="2.02" ry="2.02"/><text class="cls-8" transform="translate(27.34 397.16)"><tspan x="0" y="0">Museum collections</tspan></text><text class="cls-4" transform="translate(19.28 341.53)"><tspan class="cls-17" x="0" y="0">A</tspan><tspan class="cls-14" x="39.03" y="0">C</tspan><tspan class="cls-23" x="72.59" y="0">M</tspan><tspan class="cls-2" x="124.58" y="0">E</tspan></text><circle class="cls-9" cx="13.86" cy="308.08" r="6.99"/><rect class="cls-9" x="14.42" y="310.06" width="2.21" height="35.65"/><rect class="cls-10" x="14.42" y="345.7" width="2.21" height="3.76"/><rect class="cls-9" x="272.43" y="68.82" width="167.91" height="4.04" rx="2.02" ry="2.02"/><text class="cls-4" transform="translate(291.71 65.7)"><tspan class="cls-17" x="0" y="0">A</tspan><tspan class="cls-14" x="39.03" y="0">C</tspan><tspan class="cls-23" x="72.59" y="0">M</tspan><tspan class="cls-2" x="124.58" y="0">E</tspan></text><text class="cls-3" transform="translate(337.52 183.86)"><tspan class="cls-17" x="0" y="0">A</tspan><tspan class="cls-14" x="39.03" y="0">C</tspan><tspan class="cls-23" x="72.59" y="0">M</tspan><tspan class="cls-2" x="124.58" y="0">E</tspan></text><circle class="cls-9" cx="286.29" cy="32.25" r="6.99"/><rect class="cls-9" x="286.84" y="34.23" width="2.21" height="35.65"/><rect class="cls-10" x="286.84" y="69.87" width="2.21" height="3.76"/><path class="cls-6" d="M596.37,122.26c-3.24-3.56-4.9-8.28-4.35-13.1,.58-5.07,3.89-9.22,6.58-13.38,5.67-8.79,8.04-18.54,6.74-28.97-2.7-21.6-19.1-37.31-36.66-48.38-6.7-4.22-12.42,6.05-6.13,10.48,15.98,11.27,34.16,27.25,31.85,48.97-1.09,10.21-9.33,16.77-11.84,26.38-2.36,9.05,.41,18.4,6.62,25.2,4.43,4.85,11.59-2.36,7.19-7.19h0Z"/><path class="cls-6" d="M583.37,96.13c3.82-11.24,10.19-24.16,1.43-34.63-3.94-4.71-9.53-7.21-14.77-10.14s-10.12-8.54-16.1-8.77c-3.42-.13-5.47,3.29-4.83,6.33,.99,4.7,5.65,7.35,9.48,9.79,4.4,2.81,9.28,4.72,13.68,7.49s6.34,5.81,5.37,10.94c-1.04,5.49-2.43,10.93-3.5,16.43-1.17,6.03,7.23,8.42,9.23,2.54h0Z"/><path class="cls-6" d="M616.04,77.21c2.65-12.87,5.2-26.87-2.48-38.71-2.31-3.56-8.67-8.26-6.84-12.85,2.56-6.4,8.07-11.33,11.14-17.43,2.15-4.27-2.63-10.68-7.26-7.26-5.87,4.34-10.16,11-13.61,17.37-3.16,5.83-3.85,11.74-.31,17.6s8.73,9.87,10.85,16.85c2.24,7.37,1.92,15.87,1.58,23.49-.18,3.93,6.12,4.86,6.93,.94h0Z"/><path class="cls-6" d="M670.69,317.75c-3.24-3.56-4.9-8.28-4.35-13.1,.58-5.07,3.89-9.22,6.58-13.38,5.67-8.79,8.04-18.54,6.74-28.97-2.7-21.6-19.1-37.31-36.66-48.38-6.7-4.22-12.42,6.05-6.13,10.48,15.98,11.27,34.16,27.25,31.85,48.97-1.09,10.21-9.33,16.77-11.84,26.38-2.36,9.05,.41,18.4,6.62,25.2,4.43,4.85,11.59-2.36,7.19-7.19h0Z"/><path class="cls-6" d="M657.69,291.62c3.82-11.24,10.19-24.16,1.43-34.63-3.94-4.71-9.53-7.21-14.77-10.14s-10.12-8.54-16.1-8.77c-3.42-.13-5.47,3.29-4.83,6.33,.99,4.7,5.65,7.35,9.48,9.79,4.4,2.81,9.28,4.72,13.68,7.49s6.34,5.81,5.37,10.94c-1.04,5.49-2.43,10.93-3.5,16.43-1.17,6.03,7.23,8.42,9.23,2.54h0Z"/><path class="cls-6" d="M690.36,272.7c2.65-12.87,5.2-26.87-2.48-38.71-2.31-3.56-8.67-8.26-6.84-12.85,2.56-6.4,8.07-11.33,11.14-17.43,2.15-4.27-2.63-10.68-7.26-7.26-5.87,4.34-10.16,11-13.61,17.37-3.16,5.83-3.85,11.74-.31,17.6s8.73,9.87,10.85,16.85c2.24,7.37,1.92,15.87,1.58,23.49-.18,3.93,6.12,4.86,6.93,.94h0Z"/><circle class="cls-6" cx="657.19" cy="259.92" r="43.32"/><rect class="cls-6" x="282.89" y="145.87" width="3.3" height="8" rx="1.19" ry="1.19"/><rect class="cls-6" x="288.33" y="145.87" width="3.3" height="40.47" rx="1.19" ry="1.19"/><rect class="cls-6" x="293.77" y="145.87" width="3.3" height="34.19" rx="1.19" ry="1.19"/><rect class="cls-6" x="299.21" y="145.87" width="3.3" height="15.11" rx="1.19" ry="1.19"/><rect class="cls-6" x="304.65" y="145.87" width="3.3" height="24.49" rx="1.19" ry="1.19"/><rect class="cls-6" x="310.09" y="145.87" width="3.3" height="30.45" rx="1.19" ry="1.19"/><rect class="cls-6" x="315.53" y="145.87" width="3.3" height="20.69" rx="1.19" ry="1.19"/><rect class="cls-6" x="320.97" y="145.87" width="3.3" height="16.34" rx="1.19" ry="1.19"/><circle class="cls-13" cx="302.51" cy="162.97" r="33.85"/><text class="cls-5" transform="translate(336.81 295.47)"><tspan class="cls-25" x="0" y="0">A</tspan><tspan class="cls-15" x="37.33" y="0">C</tspan><tspan class="cls-22" x="71.11" y="0">M</tspan><tspan class="cls-2" x="116.88" y="0">E</tspan></text><circle class="cls-12" cx="300.53" cy="276.81" r="21.84"/><circle class="cls-12" cx="300.53" cy="276.81" r="18.7"/><rect class="cls-6" x="289.53" y="264.33" width="1.75" height="6.21"/><rect class="cls-6" x="292.91" y="264.33" width="1.75" height="25.7"/><rect class="cls-6" x="296.28" y="264.33" width="1.75" height="16.3"/><rect class="cls-6" x="299.66" y="264.33" width="1.75" height="12.48"/><text class="cls-5" transform="translate(336.81 371.07)"><tspan class="cls-25" x="0" y="0">A</tspan><tspan class="cls-15" x="37.33" y="0">C</tspan><tspan class="cls-22" x="71.11" y="0">M</tspan><tspan class="cls-2" x="116.88" y="0">E</tspan></text><g><path class="cls-12" d="M321.08,359.82c-1.1,3.05-2.9,5.9-5.39,8.31-8.68,8.37-22.51,8.12-30.89-.56-8.37-8.68-8.12-22.51,.56-30.89,8.68-8.37,22.51-8.12,30.89,.56"/><path class="cls-12" d="M312.66,352.65c-.03,1.8-.47,3.62-1.36,5.33-3.08,5.95-10.4,8.28-16.35,5.21s-8.28-10.4-5.21-16.35,10.4-8.28,16.35-5.21"/><path class="cls-12" d="M319.23,352.4c0,10.33-8.37,18.7-18.7,18.7s-18.7-8.37-18.7-18.7,8.37-18.7,18.7-18.7"/><path class="cls-12" d="M314.73,346.26c3.39,7.84-.22,16.95-8.06,20.34-7.84,3.39-16.95-.22-20.34-8.06-3.39-7.84,.22-16.95,8.06-20.34"/><circle class="cls-6" cx="310.81" cy="343.33" r="2.38"/></g><g><path class="cls-6" d="M361.99,634.46h-7.64c-.49,0-.84-.49-.68-.95l11.72-33.84c.1-.29,.37-.48,.68-.48h8.93c.31,0,.58,.19,.68,.48l11.81,33.84c.16,.47-.18,.96-.68,.96h-7.74c-.32,0-.6-.21-.69-.51l-6.87-23.12-.45-1.81c-.18-.73-1.21-.73-1.39,0l-.47,1.82-6.5,23.11c-.09,.31-.37,.52-.69,.52Zm-.88-7.39l.76-4.69c.06-.35,.36-.6,.71-.6h14.85c.36,0,.66,.26,.71,.61l.72,4.69c.07,.44-.27,.83-.71,.83h-16.33c-.44,0-.78-.4-.71-.83Z"/><path class="cls-6" d="M392.1,617.01c0-2.97,.46-5.58,1.37-7.82,.91-2.24,2.19-4.12,3.82-5.62,1.63-1.51,3.54-2.64,5.71-3.4s4.51-1.13,7.03-1.13c1.62,0,2.97,.09,4.07,.27s2.04,.38,2.83,.6c.55,.15,1.08,.29,1.59,.4,.37,.08,.62,.43,.56,.81l-1.03,6.88c-.33-.22-.8-.49-1.4-.81-.61-.32-1.39-.61-2.36-.85-.97-.24-2.15-.37-3.55-.37-1.79,0-3.41,.41-4.86,1.21s-2.59,2-3.44,3.56c-.85,1.56-1.27,3.48-1.27,5.74s.37,4.33,1.12,6.06c.75,1.73,1.86,3.08,3.34,4.04,1.48,.97,3.31,1.45,5.49,1.45,.99,0,2-.12,3.02-.37,1.02-.24,1.94-.54,2.76-.88,.28-.12,.54-.24,.78-.36,.48-.24,1.04,.1,1.04,.64v5.44c0,.29-.17,.56-.44,.67-.49,.2-1.05,.4-1.67,.62-.81,.28-1.75,.53-2.82,.73s-2.29,.31-3.66,.31c-3.87,0-7.14-.73-9.82-2.19-2.68-1.46-4.72-3.53-6.11-6.2s-2.09-5.82-2.09-9.43Z"/><path class="cls-6" d="M425.75,633.66l3.89-33.61c.04-.36,.35-.64,.71-.64h10.63c.33,0,.62,.23,.7,.55l4.11,17.42,.82,4.18c.15,.79,1.29,.77,1.42-.03l.64-4.13v-.04l3.66-17.38c.07-.33,.36-.57,.7-.57h10.24c.36,0,.67,.27,.71,.63l4.16,33.61c.05,.43-.28,.81-.71,.81h-6.97c-.38,0-.69-.29-.72-.66l-1.41-17.78-.23-4.54c-.04-.84-1.25-.94-1.42-.11l-1.03,4.94-4.58,17.81c-.08,.32-.37,.54-.7,.54h-6.68c-.32,0-.61-.22-.69-.53l-4.95-17.82-1.2-5.39c-.18-.81-1.37-.72-1.42,.11l-.3,5-1.32,17.78c-.03,.38-.34,.67-.72,.67h-6.64c-.43,0-.76-.37-.71-.8Z"/><path class="cls-6" d="M477.25,633.74v-33.61c0-.4,.32-.72,.72-.72h20.73c.4,0,.72,.32,.72,.72v5.12c0,.4-.32,.72-.72,.72h-12c-.4,0-.72,.32-.72,.72v5.97c0,.4,.32,.72,.72,.72h8.94c.4,0,.72,.32,.72,.72v4.93c0,.4-.32,.72-.72,.72h-8.94c-.4,0-.72,.32-.72,.72v6.58c0,.4,.32,.72,.72,.72h13.37c.4,0,.72,.32,.72,.72v5.26c0,.4-.32,.72-.72,.72h-22.1c-.4,0-.72-.32-.72-.72Z"/></g><g><line class="cls-10" x1="350.74" y1="622.98" x2="510.32" y2="622.48"/><polygon class="cls-10" points="350.73 620.48 510.32 622.48 350.75 625.48 350.73 620.48 350.73 620.48"/></g><g><line class="cls-10" x1="351.07" y1="617.14" x2="510.65" y2="616.64"/><polygon class="cls-10" points="351.07 614.64 510.65 616.64 351.08 619.64 351.07 614.64 351.07 614.64"/></g><g><line class="cls-10" x1="351.4" y1="611.4" x2="510.98" y2="610.9"/><polygon class="cls-10" points="351.39 608.9 510.98 610.9 351.41 613.9 351.39 608.9 351.39 608.9"/></g><g><path class="cls-6" d="M368.86,644.13c.73-1.74,1.21-2.87,1.42-3.4h3.98l-.09,.75-1.33,.18-.29,9.49,1.31,.21-.05,.7h-4.82l.06-.72,1.4-.18,.38-6.53,.17-3.02-1.1,2.65-3.39,7.81-1.07,.12-1.11-7.75-.44-2.84-.64,2.91-1.59,6.62,1.62,.21-.06,.7h-4.3l.08-.7,1.24-.21,2.44-9.49-1.43-.18,.11-.75h4.44l.93,6.79,.18,1.39,.52-1.37c.41-1.02,.89-2.15,1.43-3.4Z"/><path class="cls-6" d="M377.39,648.44c-.1,.79-.15,1.3-.15,1.53,0,.41,.07,.7,.21,.87s.36,.26,.64,.26c.33,0,.65-.1,.97-.31,.32-.2,.59-.45,.82-.73l.88-6.59h2.01l-.98,7.06c-.02,.18,0,.32,.04,.41,.05,.09,.13,.14,.23,.14,.09,0,.19-.03,.29-.08,.1-.06,.24-.16,.43-.31l.21,.47c-.13,.21-.38,.44-.73,.69-.36,.24-.76,.37-1.22,.37-.36,0-.63-.08-.82-.23s-.29-.36-.31-.63l-.02-.18c0-.08,.01-.18,.03-.31h-.03c-.75,.89-1.64,1.34-2.65,1.34-.57,0-1.05-.15-1.45-.46-.4-.31-.6-.81-.61-1.49,0-.4,.07-1.11,.21-2.15,.04-.25,.07-.43,.08-.52l.41-2.78-.88-.52,.12-.63,2.53-.26,.35,.17-.52,4.07c-.04,.38-.08,.64-.11,.79Z"/><path class="cls-6" d="M388.75,644.6c-.28-.15-.6-.23-.97-.23-.41,0-.74,.09-.98,.27s-.37,.44-.37,.79c0,.3,.1,.58,.31,.82,.21,.24,.55,.53,1.01,.86,.52,.39,.92,.76,1.19,1.12,.27,.36,.41,.82,.41,1.38s-.15,1.04-.46,1.43c-.3,.39-.71,.69-1.22,.89-.51,.2-1.07,.3-1.68,.3-.46,0-.93-.05-1.4-.16-.48-.11-.79-.22-.93-.34l.31-1.3c.21,.18,.5,.36,.87,.52s.75,.24,1.14,.24c.38,0,.7-.09,.97-.26s.4-.44,.4-.81c0-.32-.12-.6-.35-.85-.23-.25-.58-.54-1.05-.87-.43-.29-.79-.64-1.08-1.05-.29-.4-.43-.89-.43-1.46,0-.49,.14-.92,.42-1.3,.28-.38,.67-.67,1.16-.88,.49-.21,1.06-.31,1.7-.31,.38,0,.76,.03,1.14,.09,.39,.06,.65,.13,.78,.2l-.29,1.36c-.12-.14-.32-.29-.6-.44Z"/><path class="cls-6" d="M395.83,651.71c-.59,.37-1.28,.55-2.07,.55-.73,0-1.33-.16-1.81-.47-.47-.32-.82-.73-1.03-1.24-.21-.51-.32-1.06-.32-1.66,0-1.02,.21-1.95,.62-2.78,.41-.84,.97-1.5,1.69-1.99s1.5-.73,2.38-.73c.78,0,1.37,.18,1.75,.54,.38,.36,.57,.83,.57,1.41,0,.73-.26,1.34-.79,1.83-.53,.49-1.17,.85-1.91,1.09-.74,.24-1.44,.37-2.11,.39-.02,.73,.1,1.32,.36,1.77,.26,.45,.65,.67,1.18,.67,.87,0,1.67-.41,2.38-1.22l.4,.67c-.26,.42-.69,.81-1.29,1.17Zm-2.42-6.3c-.35,.72-.55,1.53-.61,2.41,.4-.02,.82-.13,1.26-.32,.44-.19,.81-.47,1.11-.82,.3-.35,.45-.76,.45-1.21,0-.37-.07-.65-.21-.85-.14-.2-.33-.3-.59-.3-.6,0-1.07,.36-1.42,1.08Z"/><path class="cls-6" d="M401.22,648.44c-.1,.79-.15,1.3-.15,1.53,0,.41,.07,.7,.21,.87s.36,.26,.64,.26c.33,0,.65-.1,.97-.31,.32-.2,.59-.45,.82-.73l.88-6.59h2.01l-.98,7.06c-.02,.18,0,.32,.04,.41,.05,.09,.13,.14,.23,.14,.09,0,.19-.03,.29-.08,.1-.06,.24-.16,.43-.31l.21,.47c-.13,.21-.38,.44-.73,.69-.36,.24-.76,.37-1.22,.37-.36,0-.63-.08-.82-.23s-.29-.36-.31-.63l-.02-.18c0-.08,.01-.18,.03-.31h-.03c-.75,.89-1.64,1.34-2.65,1.34-.57,0-1.05-.15-1.45-.46-.4-.31-.6-.81-.61-1.49,0-.4,.07-1.11,.21-2.15,.04-.25,.07-.43,.08-.52l.41-2.78-.88-.52,.12-.63,2.53-.26,.35,.17-.52,4.07c-.04,.38-.08,.64-.11,.79Z"/><path class="cls-6" d="M412.34,643.91c.51-.35,1.04-.52,1.6-.52s1.01,.15,1.33,.45,.51,.78,.56,1.44c.36-.59,.79-1.05,1.3-1.39,.51-.33,1.07-.5,1.67-.5,1.27,0,1.91,.75,1.91,2.24,0,.33-.1,1.08-.3,2.26l-.06,.4-.08,.4c-.17,.95-.26,1.6-.27,1.95,0,.29,.09,.44,.26,.44,.09,0,.19-.03,.3-.08,.11-.06,.25-.16,.43-.31l.2,.47c-.14,.21-.39,.44-.75,.69-.36,.24-.78,.37-1.28,.37s-.81-.1-.99-.29c-.18-.19-.27-.45-.27-.78,0-.2,.03-.5,.09-.89,.06-.39,.13-.79,.2-1.18l.06-.35c.12-.69,.21-1.24,.27-1.63,.06-.4,.08-.78,.08-1.16,0-.47-.05-.79-.16-.96-.11-.17-.29-.26-.56-.26-.33,0-.68,.16-1.06,.47-.38,.32-.71,.72-.98,1.21-.04,.6-.11,1.24-.2,1.91l-.47,3.77h-2.06l.44-3.33c.18-1.26,.27-2.22,.27-2.87,0-.47-.07-.78-.19-.93-.12-.15-.32-.23-.62-.23-.33,0-.69,.18-1.11,.53-.41,.36-.75,.78-1.03,1.28l-.76,5.54h-1.98l.98-7.26-.78-.41,.12-.62,2.38-.37,.35,.17-.15,1.69c.37-.55,.8-1,1.31-1.34Z"/><path class="cls-6" d="M430.71,644.8c-.22-.22-.41-.33-.57-.33-.38,0-.72,.17-1.04,.52s-.58,.83-.78,1.45c-.2,.62-.3,1.32-.3,2.09,0,.84,.12,1.46,.37,1.85s.62,.59,1.11,.59c.43,0,.79-.08,1.09-.24,.3-.16,.59-.39,.88-.69l.4,.67c-.25,.38-.65,.72-1.2,1.03s-1.19,.46-1.93,.46c-.88,0-1.56-.31-2.06-.92-.5-.62-.75-1.49-.75-2.62,0-.85,.18-1.69,.53-2.5,.36-.81,.88-1.47,1.59-2,.7-.52,1.55-.79,2.53-.79,.32,0,.64,.03,.98,.08s.62,.13,.83,.24l-.52,1.98-.41-.03c-.28-.36-.54-.64-.75-.86Z"/><path class="cls-6" d="M440.02,644.3c.56,.62,.84,1.5,.84,2.65,0,.95-.19,1.83-.58,2.64s-.93,1.46-1.63,1.95c-.7,.48-1.5,.72-2.41,.72-1.06,0-1.86-.31-2.42-.94-.55-.62-.83-1.52-.83-2.68,0-.96,.19-1.84,.57-2.64,.38-.8,.92-1.44,1.62-1.91,.7-.47,1.5-.71,2.41-.71,1.06,0,1.87,.31,2.43,.92Zm-3.88,.67c-.33,.42-.57,.96-.72,1.61-.16,.65-.24,1.32-.24,2,0,.97,.11,1.67,.33,2.12,.22,.45,.56,.67,1.03,.67s.84-.21,1.16-.64c.32-.43,.55-.97,.7-1.63,.15-.66,.23-1.34,.23-2.03,0-.97-.1-1.66-.31-2.09-.21-.43-.54-.64-.98-.64s-.87,.21-1.19,.63Z"/><path class="cls-6" d="M444.26,650.7c0,.25,.09,.38,.27,.38,.09,0,.19-.03,.3-.08,.11-.05,.25-.16,.43-.32l.2,.47c-.16,.23-.4,.47-.72,.7-.32,.23-.72,.35-1.22,.35-.39,0-.7-.08-.95-.24s-.37-.4-.38-.74c0-.04,.02-.22,.06-.55l1.33-9.75-.96-.3,.14-.56,2.59-.31,.35,.2-1.43,10.57s-.01,.1-.01,.17Z"/><path class="cls-6" d="M448.92,650.7c0,.25,.09,.38,.27,.38,.09,0,.19-.03,.3-.08,.11-.05,.25-.16,.43-.32l.2,.47c-.16,.23-.4,.47-.72,.7-.32,.23-.72,.35-1.22,.35-.39,0-.7-.08-.95-.24s-.37-.4-.38-.74c0-.04,.02-.22,.06-.55l1.33-9.75-.96-.3,.14-.56,2.59-.31,.35,.2-1.43,10.57s-.01,.1-.01,.17Z"/><path class="cls-6" d="M456.48,651.71c-.59,.37-1.28,.55-2.07,.55-.73,0-1.33-.16-1.81-.47-.47-.32-.82-.73-1.03-1.24-.21-.51-.32-1.06-.32-1.66,0-1.02,.21-1.95,.62-2.78,.41-.84,.97-1.5,1.69-1.99s1.5-.73,2.38-.73c.78,0,1.37,.18,1.75,.54,.38,.36,.57,.83,.57,1.41,0,.73-.26,1.34-.79,1.83-.53,.49-1.17,.85-1.91,1.09-.74,.24-1.44,.37-2.11,.39-.02,.73,.1,1.32,.36,1.77,.26,.45,.65,.67,1.18,.67,.87,0,1.67-.41,2.38-1.22l.4,.67c-.26,.42-.69,.81-1.29,1.17Zm-2.42-6.3c-.35,.72-.55,1.53-.61,2.41,.4-.02,.82-.13,1.26-.32,.44-.19,.81-.47,1.11-.82,.3-.35,.45-.76,.45-1.21,0-.37-.07-.65-.21-.85-.14-.2-.33-.3-.59-.3-.6,0-1.07,.36-1.42,1.08Z"/><path class="cls-6" d="M463.95,644.8c-.22-.22-.41-.33-.57-.33-.38,0-.72,.17-1.04,.52s-.58,.83-.78,1.45c-.2,.62-.3,1.32-.3,2.09,0,.84,.12,1.46,.37,1.85s.62,.59,1.11,.59c.43,0,.79-.08,1.09-.24,.3-.16,.59-.39,.88-.69l.4,.67c-.25,.38-.65,.72-1.2,1.03s-1.19,.46-1.93,.46c-.88,0-1.56-.31-2.06-.92-.5-.62-.75-1.49-.75-2.62,0-.85,.18-1.69,.53-2.5,.36-.81,.88-1.47,1.59-2,.7-.52,1.55-.79,2.53-.79,.32,0,.64,.03,.98,.08s.62,.13,.83,.24l-.52,1.98-.41-.03c-.28-.36-.54-.64-.75-.86Z"/><path class="cls-6" d="M468.63,650.34c0,.23,.05,.4,.14,.5,.09,.1,.25,.15,.47,.15,.2,0,.43-.05,.69-.15,.26-.1,.48-.22,.65-.36l.17,.56c-.26,.29-.64,.56-1.13,.81s-1.04,.37-1.65,.37c-.43,0-.77-.11-1.01-.33s-.37-.57-.37-1.04c0-.2,.05-.68,.15-1.43l.64-4.73h-.92l.17-.73,.92-.32c.3-.28,.67-.99,1.08-2.11h1.14l-.26,2.08h1.83l-.15,1.08h-1.83l-.63,4.59c-.07,.59-.11,.95-.11,1.07Z"/><path class="cls-6" d="M474.14,650.72c0,.24,.09,.37,.26,.37,.09,0,.19-.03,.31-.09,.11-.06,.25-.16,.43-.3l.2,.47c-.17,.23-.43,.47-.77,.7-.34,.23-.75,.35-1.24,.35-.4,0-.71-.08-.93-.24s-.34-.37-.34-.65l.02-.15c.06-.53,.27-2.07,.62-4.61l.24-1.77-.9-.43,.11-.6,2.62-.37,.37,.17-.98,6.96c0,.05-.01,.11-.01,.18Zm-.53-9.09c-.2-.21-.3-.45-.3-.72,0-.38,.12-.69,.37-.95,.25-.25,.57-.38,.95-.38,.32,0,.56,.1,.75,.3,.18,.2,.27,.44,.27,.71,0,.39-.12,.71-.35,.97-.23,.26-.56,.39-.99,.39-.27,0-.51-.1-.71-.31Z"/><path class="cls-6" d="M483.6,644.3c.56,.62,.84,1.5,.84,2.65,0,.95-.19,1.83-.58,2.64s-.93,1.46-1.63,1.95c-.7,.48-1.5,.72-2.41,.72-1.06,0-1.86-.31-2.42-.94-.55-.62-.83-1.52-.83-2.68,0-.96,.19-1.84,.57-2.64,.38-.8,.92-1.44,1.62-1.91,.7-.47,1.5-.71,2.41-.71,1.06,0,1.87,.31,2.43,.92Zm-3.88,.67c-.33,.42-.57,.96-.72,1.61-.16,.65-.24,1.32-.24,2,0,.97,.11,1.67,.33,2.12,.22,.45,.56,.67,1.03,.67s.84-.21,1.16-.64c.32-.43,.55-.97,.7-1.63,.15-.66,.23-1.34,.23-2.03,0-.97-.1-1.66-.31-2.09-.21-.43-.54-.64-.98-.64s-.87,.21-1.19,.63Z"/><path class="cls-6" d="M489.97,643.9c.52-.33,1.06-.5,1.63-.5,1.26,0,1.89,.75,1.89,2.24,0,.4-.13,1.28-.38,2.66-.04,.26-.08,.47-.11,.61-.14,.8-.22,1.38-.23,1.74v.06c0,.25,.08,.38,.24,.38,.09,0,.19-.03,.29-.08,.1-.05,.23-.14,.4-.27l.21,.47c-.15,.21-.4,.43-.75,.66-.35,.23-.77,.34-1.27,.34s-.81-.1-.99-.31c-.18-.21-.28-.49-.28-.83,.01-.3,.11-.91,.29-1.82l.09-.52c.02-.09,.06-.34,.13-.73,.07-.4,.12-.78,.16-1.14,.04-.36,.06-.67,.06-.94,0-.47-.05-.79-.16-.96-.11-.17-.3-.26-.57-.26-.33,0-.71,.19-1.12,.56-.41,.38-.77,.83-1.06,1.36l-.73,5.43h-2l.98-7.26-.78-.41,.12-.62,2.38-.37,.35,.17-.15,1.68c.38-.56,.82-1.01,1.34-1.34Z"/><path class="cls-6" d="M499.79,644.6c-.28-.15-.6-.23-.97-.23-.41,0-.74,.09-.98,.27s-.37,.44-.37,.79c0,.3,.1,.58,.31,.82,.21,.24,.55,.53,1.01,.86,.52,.39,.92,.76,1.19,1.12,.27,.36,.41,.82,.41,1.38s-.15,1.04-.46,1.43c-.3,.39-.71,.69-1.22,.89-.51,.2-1.07,.3-1.68,.3-.46,0-.93-.05-1.4-.16-.48-.11-.79-.22-.93-.34l.31-1.3c.21,.18,.5,.36,.87,.52s.75,.24,1.14,.24c.38,0,.7-.09,.97-.26s.4-.44,.4-.81c0-.32-.12-.6-.35-.85-.23-.25-.58-.54-1.05-.87-.43-.29-.79-.64-1.08-1.05-.29-.4-.43-.89-.43-1.46,0-.49,.14-.92,.42-1.3,.28-.38,.67-.67,1.16-.88,.49-.21,1.06-.31,1.7-.31,.38,0,.76,.03,1.14,.09,.39,.06,.65,.13,.78,.2l-.29,1.36c-.12-.14-.32-.29-.6-.44Z"/></g><g><path class="cls-6" d="M316.8,656.64c-.2,.07-.4,.13-.61,.2-8.75,2.74-18.05,1.9-26.17-2.35-8.12-4.25-14.1-11.42-16.84-20.17-2.74-8.75-1.9-18.05,2.35-26.17,4.26-8.12,11.47-14.12,20.17-16.84,8.75-2.74,18.05-1.9,26.17,2.35l-1.19,2.28c-7.51-3.94-16.11-4.71-24.21-2.18-8.12,2.57-14.72,8.06-18.66,15.58-3.94,7.51-4.71,16.11-2.18,24.21,2.53,8.1,8.06,14.72,15.58,18.66,7.51,3.94,16.11,4.71,24.21,2.18,8.13-2.6,14.73-8.06,18.66-15.58,2.28-4.36,3.5-9.05,3.62-13.93l2.57,.06c-.13,5.28-1.45,10.35-3.91,15.06-4.16,7.93-11.09,13.82-19.56,16.64Z"/><path class="cls-6" d="M312.13,642.72c-2.94,.98-6.09,1.24-9.23,.75-5.18-.82-9.74-3.6-12.83-7.84-3.09-4.24-4.34-9.43-3.53-14.61s3.6-9.74,7.84-12.83c4.24-3.09,9.43-4.34,14.62-3.53l-.4,2.54c-4.5-.71-9.01,.38-12.7,3.06-3.69,2.68-6.11,6.64-6.82,11.15-.71,4.5,.38,9.01,3.06,12.7,2.68,3.68,6.64,6.11,11.15,6.81,9.3,1.46,18.05-4.91,19.51-14.21,.41-2.61,.22-5.21-.56-7.72l2.45-.76c.9,2.89,1.12,5.87,.64,8.88-.81,5.18-3.6,9.74-7.84,12.83-1.67,1.21-3.48,2.14-5.38,2.78Z"/><path class="cls-6" d="M315.28,652.13c-15.47,5.15-32.25-3.26-37.39-18.73-5.15-15.47,3.26-32.25,18.73-37.39l.81,2.44c-14.13,4.7-21.8,20.02-17.1,34.14s20.02,21.8,34.14,17.1c14.13-4.7,21.8-20.02,17.1-34.14l2.44-.81c5.15,15.47-3.26,32.25-18.73,37.39Z"/><path class="cls-6" d="M313.77,647.48c-9.07,3.02-19.47,.6-26.23-6.96-9.07-10.15-8.19-25.79,1.96-34.86l1.72,1.92c-9.09,8.13-9.88,22.13-1.76,31.23,8.13,9.09,22.13,9.88,31.23,1.75,4.41-3.94,7.01-9.35,7.35-15.25,.33-5.9-1.65-11.57-5.59-15.97l1.92-1.72c4.39,4.92,6.61,11.25,6.24,17.83-.37,6.58-3.28,12.63-8.2,17.02-2.58,2.31-5.53,3.97-8.62,5.01Z"/><circle class="cls-6" cx="316.37" cy="606.14" r="3.61"/></g><g><g><path class="cls-6" d="M368.86,513.78c.73-1.74,1.21-2.87,1.42-3.4h3.98l-.09,.75-1.33,.18-.29,9.49,1.31,.21-.05,.7h-4.82l.06-.72,1.4-.18,.38-6.53,.17-3.02-1.1,2.65-3.39,7.81-1.07,.12-1.11-7.75-.44-2.84-.64,2.91-1.59,6.62,1.62,.21-.06,.7h-4.3l.08-.7,1.24-.21,2.44-9.49-1.43-.18,.11-.75h4.44l.93,6.79,.18,1.39,.52-1.37c.41-1.02,.89-2.15,1.43-3.4Z"/><path class="cls-6" d="M377.39,518.1c-.1,.79-.15,1.3-.15,1.53,0,.41,.07,.7,.21,.87s.36,.26,.64,.26c.33,0,.65-.1,.97-.31,.32-.2,.59-.45,.82-.73l.88-6.59h2.01l-.98,7.06c-.02,.18,0,.32,.04,.41,.05,.09,.13,.14,.23,.14,.09,0,.19-.03,.29-.08,.1-.06,.24-.16,.43-.31l.21,.47c-.13,.21-.38,.44-.73,.69-.36,.24-.76,.37-1.22,.37-.36,0-.63-.08-.82-.23s-.29-.36-.31-.63l-.02-.18c0-.08,.01-.18,.03-.31h-.03c-.75,.89-1.64,1.34-2.65,1.34-.57,0-1.05-.15-1.45-.46-.4-.31-.6-.81-.61-1.49,0-.4,.07-1.11,.21-2.15,.04-.25,.07-.43,.08-.52l.41-2.78-.88-.52,.12-.63,2.53-.26,.35,.17-.52,4.07c-.04,.38-.08,.64-.11,.79Z"/><path class="cls-6" d="M388.75,514.25c-.28-.15-.6-.23-.97-.23-.41,0-.74,.09-.98,.27s-.37,.44-.37,.79c0,.3,.1,.58,.31,.82,.21,.24,.55,.53,1.01,.86,.52,.39,.92,.76,1.19,1.12,.27,.36,.41,.82,.41,1.38s-.15,1.04-.46,1.43c-.3,.39-.71,.69-1.22,.89-.51,.2-1.07,.3-1.68,.3-.46,0-.93-.05-1.4-.16-.48-.11-.79-.22-.93-.34l.31-1.3c.21,.18,.5,.36,.87,.52s.75,.24,1.14,.24c.38,0,.7-.09,.97-.26s.4-.44,.4-.81c0-.32-.12-.6-.35-.85-.23-.25-.58-.54-1.05-.87-.43-.29-.79-.64-1.08-1.05-.29-.4-.43-.89-.43-1.46,0-.49,.14-.92,.42-1.3,.28-.38,.67-.67,1.16-.88,.49-.21,1.06-.31,1.7-.31,.38,0,.76,.03,1.14,.09,.39,.06,.65,.13,.78,.2l-.29,1.36c-.12-.14-.32-.29-.6-.44Z"/><path class="cls-6" d="M395.83,521.36c-.59,.37-1.28,.55-2.07,.55-.73,0-1.33-.16-1.81-.47-.47-.32-.82-.73-1.03-1.24-.21-.51-.32-1.06-.32-1.66,0-1.02,.21-1.95,.62-2.78,.41-.84,.97-1.5,1.69-1.99s1.5-.73,2.38-.73c.78,0,1.37,.18,1.75,.54,.38,.36,.57,.83,.57,1.41,0,.73-.26,1.34-.79,1.83-.53,.49-1.17,.85-1.91,1.09-.74,.24-1.44,.37-2.11,.39-.02,.73,.1,1.32,.36,1.77,.26,.45,.65,.67,1.18,.67,.87,0,1.67-.41,2.38-1.22l.4,.67c-.26,.42-.69,.81-1.29,1.17Zm-2.42-6.3c-.35,.72-.55,1.53-.61,2.41,.4-.02,.82-.13,1.26-.32,.44-.19,.81-.47,1.11-.82,.3-.35,.45-.76,.45-1.21,0-.37-.07-.65-.21-.85-.14-.2-.33-.3-.59-.3-.6,0-1.07,.36-1.42,1.08Z"/><path class="cls-6" d="M401.22,518.1c-.1,.79-.15,1.3-.15,1.53,0,.41,.07,.7,.21,.87s.36,.26,.64,.26c.33,0,.65-.1,.97-.31,.32-.2,.59-.45,.82-.73l.88-6.59h2.01l-.98,7.06c-.02,.18,0,.32,.04,.41,.05,.09,.13,.14,.23,.14,.09,0,.19-.03,.29-.08,.1-.06,.24-.16,.43-.31l.21,.47c-.13,.21-.38,.44-.73,.69-.36,.24-.76,.37-1.22,.37-.36,0-.63-.08-.82-.23s-.29-.36-.31-.63l-.02-.18c0-.08,.01-.18,.03-.31h-.03c-.75,.89-1.64,1.34-2.65,1.34-.57,0-1.05-.15-1.45-.46-.4-.31-.6-.81-.61-1.49,0-.4,.07-1.11,.21-2.15,.04-.25,.07-.43,.08-.52l.41-2.78-.88-.52,.12-.63,2.53-.26,.35,.17-.52,4.07c-.04,.38-.08,.64-.11,.79Z"/><path class="cls-6" d="M412.34,513.57c.51-.35,1.04-.52,1.6-.52s1.01,.15,1.33,.45,.51,.78,.56,1.44c.36-.59,.79-1.05,1.3-1.39,.51-.33,1.07-.5,1.67-.5,1.27,0,1.91,.75,1.91,2.24,0,.33-.1,1.08-.3,2.26l-.06,.4-.08,.4c-.17,.95-.26,1.6-.27,1.95,0,.29,.09,.44,.26,.44,.09,0,.19-.03,.3-.08,.11-.06,.25-.16,.43-.31l.2,.47c-.14,.21-.39,.44-.75,.69-.36,.24-.78,.37-1.28,.37s-.81-.1-.99-.29c-.18-.19-.27-.45-.27-.78,0-.2,.03-.5,.09-.89,.06-.39,.13-.79,.2-1.18l.06-.35c.12-.69,.21-1.24,.27-1.63,.06-.4,.08-.78,.08-1.16,0-.47-.05-.79-.16-.96-.11-.17-.29-.26-.56-.26-.33,0-.68,.16-1.06,.47-.38,.32-.71,.72-.98,1.21-.04,.6-.11,1.24-.2,1.91l-.47,3.77h-2.06l.44-3.33c.18-1.26,.27-2.22,.27-2.87,0-.47-.07-.78-.19-.93-.12-.15-.32-.23-.62-.23-.33,0-.69,.18-1.11,.53-.41,.36-.75,.78-1.03,1.28l-.76,5.54h-1.98l.98-7.26-.78-.41,.12-.62,2.38-.37,.35,.17-.15,1.69c.37-.55,.8-1,1.31-1.34Z"/><path class="cls-6" d="M430.71,514.46c-.22-.22-.41-.33-.57-.33-.38,0-.72,.17-1.04,.52s-.58,.83-.78,1.45c-.2,.62-.3,1.32-.3,2.09,0,.84,.12,1.46,.37,1.85s.62,.59,1.11,.59c.43,0,.79-.08,1.09-.24,.3-.16,.59-.39,.88-.69l.4,.67c-.25,.38-.65,.72-1.2,1.03s-1.19,.46-1.93,.46c-.88,0-1.56-.31-2.06-.92-.5-.62-.75-1.49-.75-2.62,0-.85,.18-1.69,.53-2.5,.36-.81,.88-1.47,1.59-2,.7-.52,1.55-.79,2.53-.79,.32,0,.64,.03,.98,.08s.62,.13,.83,.24l-.52,1.98-.41-.03c-.28-.36-.54-.64-.75-.86Z"/><path class="cls-6" d="M440.02,513.95c.56,.62,.84,1.5,.84,2.65,0,.95-.19,1.83-.58,2.64s-.93,1.46-1.63,1.95c-.7,.48-1.5,.72-2.41,.72-1.06,0-1.86-.31-2.42-.94-.55-.62-.83-1.52-.83-2.68,0-.96,.19-1.84,.57-2.64,.38-.8,.92-1.44,1.62-1.91,.7-.47,1.5-.71,2.41-.71,1.06,0,1.87,.31,2.43,.92Zm-3.88,.67c-.33,.42-.57,.96-.72,1.61-.16,.65-.24,1.32-.24,2,0,.97,.11,1.67,.33,2.12,.22,.45,.56,.67,1.03,.67s.84-.21,1.16-.64c.32-.43,.55-.97,.7-1.63,.15-.66,.23-1.34,.23-2.03,0-.97-.1-1.66-.31-2.09-.21-.43-.54-.64-.98-.64s-.87,.21-1.19,.63Z"/><path class="cls-6" d="M444.26,520.36c0,.25,.09,.38,.27,.38,.09,0,.19-.03,.3-.08,.11-.05,.25-.16,.43-.32l.2,.47c-.16,.23-.4,.47-.72,.7-.32,.23-.72,.35-1.22,.35-.39,0-.7-.08-.95-.24s-.37-.4-.38-.74c0-.04,.02-.22,.06-.55l1.33-9.75-.96-.3,.14-.56,2.59-.31,.35,.2-1.43,10.57s-.01,.1-.01,.17Z"/><path class="cls-6" d="M448.92,520.36c0,.25,.09,.38,.27,.38,.09,0,.19-.03,.3-.08,.11-.05,.25-.16,.43-.32l.2,.47c-.16,.23-.4,.47-.72,.7-.32,.23-.72,.35-1.22,.35-.39,0-.7-.08-.95-.24s-.37-.4-.38-.74c0-.04,.02-.22,.06-.55l1.33-9.75-.96-.3,.14-.56,2.59-.31,.35,.2-1.43,10.57s-.01,.1-.01,.17Z"/><path class="cls-6" d="M456.48,521.36c-.59,.37-1.28,.55-2.07,.55-.73,0-1.33-.16-1.81-.47-.47-.32-.82-.73-1.03-1.24-.21-.51-.32-1.06-.32-1.66,0-1.02,.21-1.95,.62-2.78,.41-.84,.97-1.5,1.69-1.99s1.5-.73,2.38-.73c.78,0,1.37,.18,1.75,.54,.38,.36,.57,.83,.57,1.41,0,.73-.26,1.34-.79,1.83-.53,.49-1.17,.85-1.91,1.09-.74,.24-1.44,.37-2.11,.39-.02,.73,.1,1.32,.36,1.77,.26,.45,.65,.67,1.18,.67,.87,0,1.67-.41,2.38-1.22l.4,.67c-.26,.42-.69,.81-1.29,1.17Zm-2.42-6.3c-.35,.72-.55,1.53-.61,2.41,.4-.02,.82-.13,1.26-.32,.44-.19,.81-.47,1.11-.82,.3-.35,.45-.76,.45-1.21,0-.37-.07-.65-.21-.85-.14-.2-.33-.3-.59-.3-.6,0-1.07,.36-1.42,1.08Z"/><path class="cls-6" d="M463.95,514.46c-.22-.22-.41-.33-.57-.33-.38,0-.72,.17-1.04,.52s-.58,.83-.78,1.45c-.2,.62-.3,1.32-.3,2.09,0,.84,.12,1.46,.37,1.85s.62,.59,1.11,.59c.43,0,.79-.08,1.09-.24,.3-.16,.59-.39,.88-.69l.4,.67c-.25,.38-.65,.72-1.2,1.03s-1.19,.46-1.93,.46c-.88,0-1.56-.31-2.06-.92-.5-.62-.75-1.49-.75-2.62,0-.85,.18-1.69,.53-2.5,.36-.81,.88-1.47,1.59-2,.7-.52,1.55-.79,2.53-.79,.32,0,.64,.03,.98,.08s.62,.13,.83,.24l-.52,1.98-.41-.03c-.28-.36-.54-.64-.75-.86Z"/><path class="cls-6" d="M468.63,519.99c0,.23,.05,.4,.14,.5,.09,.1,.25,.15,.47,.15,.2,0,.43-.05,.69-.15,.26-.1,.48-.22,.65-.36l.17,.56c-.26,.29-.64,.56-1.13,.81s-1.04,.37-1.65,.37c-.43,0-.77-.11-1.01-.33s-.37-.57-.37-1.04c0-.2,.05-.68,.15-1.43l.64-4.73h-.92l.17-.73,.92-.32c.3-.28,.67-.99,1.08-2.11h1.14l-.26,2.08h1.83l-.15,1.08h-1.83l-.63,4.59c-.07,.59-.11,.95-.11,1.07Z"/><path class="cls-6" d="M474.14,520.37c0,.24,.09,.37,.26,.37,.09,0,.19-.03,.31-.09,.11-.06,.25-.16,.43-.3l.2,.47c-.17,.23-.43,.47-.77,.7-.34,.23-.75,.35-1.24,.35-.4,0-.71-.08-.93-.24s-.34-.37-.34-.65l.02-.15c.06-.53,.27-2.07,.62-4.61l.24-1.77-.9-.43,.11-.6,2.62-.37,.37,.17-.98,6.96c0,.05-.01,.11-.01,.18Zm-.53-9.09c-.2-.21-.3-.45-.3-.72,0-.38,.12-.69,.37-.95,.25-.25,.57-.38,.95-.38,.32,0,.56,.1,.75,.3,.18,.2,.27,.44,.27,.71,0,.39-.12,.71-.35,.97-.23,.26-.56,.39-.99,.39-.27,0-.51-.1-.71-.31Z"/><path class="cls-6" d="M483.6,513.95c.56,.62,.84,1.5,.84,2.65,0,.95-.19,1.83-.58,2.64s-.93,1.46-1.63,1.95c-.7,.48-1.5,.72-2.41,.72-1.06,0-1.86-.31-2.42-.94-.55-.62-.83-1.52-.83-2.68,0-.96,.19-1.84,.57-2.64,.38-.8,.92-1.44,1.62-1.91,.7-.47,1.5-.71,2.41-.71,1.06,0,1.87,.31,2.43,.92Zm-3.88,.67c-.33,.42-.57,.96-.72,1.61-.16,.65-.24,1.32-.24,2,0,.97,.11,1.67,.33,2.12,.22,.45,.56,.67,1.03,.67s.84-.21,1.16-.64c.32-.43,.55-.97,.7-1.63,.15-.66,.23-1.34,.23-2.03,0-.97-.1-1.66-.31-2.09-.21-.43-.54-.64-.98-.64s-.87,.21-1.19,.63Z"/><path class="cls-6" d="M489.97,513.55c.52-.33,1.06-.5,1.63-.5,1.26,0,1.89,.75,1.89,2.24,0,.4-.13,1.28-.38,2.66-.04,.26-.08,.47-.11,.61-.14,.8-.22,1.38-.23,1.74v.06c0,.25,.08,.38,.24,.38,.09,0,.19-.03,.29-.08,.1-.05,.23-.14,.4-.27l.21,.47c-.15,.21-.4,.43-.75,.66-.35,.23-.77,.34-1.27,.34s-.81-.1-.99-.31c-.18-.21-.28-.49-.28-.83,.01-.3,.11-.91,.29-1.82l.09-.52c.02-.09,.06-.34,.13-.73,.07-.4,.12-.78,.16-1.14,.04-.36,.06-.67,.06-.94,0-.47-.05-.79-.16-.96-.11-.17-.3-.26-.57-.26-.33,0-.71,.19-1.12,.56-.41,.38-.77,.83-1.06,1.36l-.73,5.43h-2l.98-7.26-.78-.41,.12-.62,2.38-.37,.35,.17-.15,1.68c.38-.56,.82-1.01,1.34-1.34Z"/><path class="cls-6" d="M499.79,514.25c-.28-.15-.6-.23-.97-.23-.41,0-.74,.09-.98,.27s-.37,.44-.37,.79c0,.3,.1,.58,.31,.82,.21,.24,.55,.53,1.01,.86,.52,.39,.92,.76,1.19,1.12,.27,.36,.41,.82,.41,1.38s-.15,1.04-.46,1.43c-.3,.39-.71,.69-1.22,.89-.51,.2-1.07,.3-1.68,.3-.46,0-.93-.05-1.4-.16-.48-.11-.79-.22-.93-.34l.31-1.3c.21,.18,.5,.36,.87,.52s.75,.24,1.14,.24c.38,0,.7-.09,.97-.26s.4-.44,.4-.81c0-.32-.12-.6-.35-.85-.23-.25-.58-.54-1.05-.87-.43-.29-.79-.64-1.08-1.05-.29-.4-.43-.89-.43-1.46,0-.49,.14-.92,.42-1.3,.28-.38,.67-.67,1.16-.88,.49-.21,1.06-.31,1.7-.31,.38,0,.76,.03,1.14,.09,.39,.06,.65,.13,.78,.2l-.29,1.36c-.12-.14-.32-.29-.6-.44Z"/></g><g><path class="cls-6" d="M384.56,500.96l-14.81-33.56h-1.28l-14.76,33.56h6.34l1.71-4.21h10.97l.8,1.81h-10.6l-1.81,4.26h-10.39l16.67-37.24h3.41l16.78,37.24-9.8,.05-3.41-7.72-13.9-.05-1.86,4.47h-2.34l2.72-6.23h16.51l3.41,7.62h5.65Zm-19.5-12.31l4.05-9.75,5.86,12.94h-15.45l9.59-21.52,13.11,29.19h-2.18l-10.92-24.82-6.5,15.5h9.43l-2.93-6.39-1.97,4.85h-2.08Z"/><path class="cls-6" d="M421.92,498.3c-4.74,3.25-8.26,4.58-12.47,4.58-3.3,0-6.39-.85-9.22-2.5-5.7-3.36-9.38-9.54-9.38-16.09,0-3.3,.85-6.39,2.56-9.32,3.36-5.75,9.27-9.22,16.03-9.22,4.69,0,9.16,1.76,12.57,4.79l.75,.75-1.33,1.38-.43-.43-.32-.27c-3.04-2.82-7.03-4.37-11.24-4.37-2.98,0-5.75,.75-8.31,2.24-5.17,2.98-8.36,8.47-8.36,14.44,0,2.98,.75,5.75,2.24,8.31,2.98,5.11,8.47,8.31,14.44,8.31,3.62,0,6.66-1.07,10.55-3.62l-2.98-4.42c-3.04,1.92-5.06,2.66-7.56,2.66-1.92,0-3.73-.53-5.49-1.55-3.46-2.08-5.7-5.91-5.7-9.7,0-1.97,.53-3.84,1.55-5.59,2.08-3.57,5.54-5.59,9.64-5.59,2.34,0,4.53,.69,6.5,2.02,.11,.11,.21,.16,.37,.21l1.17-1.33-.43-.37c-2.5-1.65-5.01-2.45-7.62-2.45-3.46,0-6.76,1.33-9.27,3.89-2.5,2.5-3.84,5.75-3.84,9.22s1.33,6.77,3.84,9.27c2.5,2.5,5.81,3.89,9.27,3.89,2.5,0,4.79-.69,6.98-2.13l1.07,1.6c-2.5,1.6-5.17,2.4-8.04,2.4-4,0-7.78-1.6-10.6-4.42-2.82-2.82-4.42-6.61-4.42-10.6s1.6-7.67,4.42-10.65c2.93-2.82,6.61-4.37,10.6-4.37,3.25,0,6.18,.96,8.68,2.88,.69,.43,1.17,.8,1.44,1.07l.59,.59-3.57,4.21-.8-.59c-.27-.27-.59-.53-.96-.75-1.55-1.12-3.36-1.71-5.38-1.71-1.65,0-3.14,.43-4.58,1.23-2.88,1.65-4.69,4.64-4.69,8.1,0,1.6,.43,3.09,1.33,4.53,1.71,2.88,4.74,4.74,7.94,4.74,2.29,0,3.94-.64,7.3-2.82l.85-.53,5.06,7.62-.75,.48Z"/><path class="cls-6" d="M456.3,491.37l-5.81,11.03-16.3-30.68-4.47,29.19h5.43l1.81-11.93,.43,.8,1.12,2.08-1.7,11.03h-9.32l5.65-37.18,.32,.53,15.29,28.82,1.76,3.25,5.33-10.12,.05,.37,.43,2.82Zm-7.56,11.51h-2.18l-10.44-19.66-2.56,16.3h-1.92l3.46-22.27,13.64,25.62Zm13.16,0h-1.92l-3.09-20.24-6.45,11.93-15.45-29.03h2.18l13.26,24.93,7.46-13.8,4,26.21Zm1.76,0l-.16-.8h.05l-4.26-27.91,1.49-2.82,.48,3.2,4.05,26.37h1.76l-.91-6.13-4-26-.16-1.28h-1.28l-1.76,3.25-.16,.37-4.69,8.74-3.52,6.66-1.12-2.02,2.5-4.63,7.56-14.33h4.1l5.65,37.34h-5.65Z"/><path class="cls-6" d="M501.11,493.72v9.16h-24.24v-37.18h1.92v35.27h20.4v-5.33h-15.02v-5.11h1.92v3.2h15.02Zm-6.29-10.71v1.92h-14.33v-19.23h20.35v9.11h-12.78v-1.92h10.87v-5.27h-16.51v15.4h12.41Zm2.5,14.38v1.92h-16.83v-12.68h16.19v-5.33h-12.52v-12.09h12.89v1.92h-10.97v8.26h12.52v9.16h-16.19v8.84h14.92Z"/></g></g><g><path class="cls-6" d="M316.8,526.29c-.2,.07-.4,.13-.61,.2-8.75,2.74-18.05,1.9-26.17-2.35-8.12-4.25-14.1-11.42-16.84-20.17-2.74-8.75-1.9-18.05,2.35-26.17,4.26-8.12,11.47-14.12,20.17-16.84,8.75-2.74,18.05-1.9,26.17,2.35l-1.19,2.28c-7.51-3.94-16.11-4.71-24.21-2.18-8.12,2.57-14.72,8.06-18.66,15.58-3.94,7.51-4.71,16.11-2.18,24.21,2.53,8.1,8.06,14.72,15.58,18.66,7.51,3.94,16.11,4.71,24.21,2.18,8.13-2.6,14.73-8.06,18.66-15.58,2.28-4.36,3.5-9.05,3.62-13.93l2.57,.06c-.13,5.28-1.45,10.35-3.91,15.06-4.16,7.93-11.09,13.82-19.56,16.64Z"/><path class="cls-6" d="M312.13,512.38c-2.94,.98-6.09,1.24-9.23,.75-5.18-.82-9.74-3.6-12.83-7.84-3.09-4.24-4.34-9.43-3.53-14.61s3.6-9.74,7.84-12.83c4.24-3.09,9.43-4.34,14.62-3.53l-.4,2.54c-4.5-.71-9.01,.38-12.7,3.06-3.69,2.68-6.11,6.64-6.82,11.15-.71,4.5,.38,9.01,3.06,12.7,2.68,3.68,6.64,6.11,11.15,6.81,9.3,1.46,18.05-4.91,19.51-14.21,.41-2.61,.22-5.21-.56-7.72l2.45-.76c.9,2.89,1.12,5.87,.64,8.88-.81,5.18-3.6,9.74-7.84,12.83-1.67,1.21-3.48,2.14-5.38,2.78Z"/><path class="cls-6" d="M315.28,521.78c-15.47,5.15-32.25-3.26-37.39-18.73-5.15-15.47,3.26-32.25,18.73-37.39l.81,2.44c-14.13,4.7-21.8,20.02-17.1,34.14s20.02,21.8,34.14,17.1c14.13-4.7,21.8-20.02,17.1-34.14l2.44-.81c5.15,15.47-3.26,32.25-18.73,37.39Z"/><path class="cls-6" d="M313.77,517.14c-9.07,3.02-19.47,.6-26.23-6.96-9.07-10.15-8.19-25.79,1.96-34.86l1.72,1.92c-9.09,8.13-9.88,22.13-1.76,31.23,8.13,9.09,22.13,9.88,31.23,1.75,4.41-3.94,7.01-9.35,7.35-15.25,.33-5.9-1.65-11.57-5.59-15.97l1.92-1.72c4.39,4.92,6.61,11.25,6.24,17.83-.37,6.58-3.28,12.63-8.2,17.02-2.58,2.31-5.53,3.97-8.62,5.01Z"/><circle class="cls-6" cx="316.37" cy="475.79" r="3.61"/></g><g><path class="cls-11" d="M411.73,974.61c-4.58,8.75-12.27,15.12-21.74,18.15-9.43,2.95-19.45,2.05-28.2-2.54-8.75-4.58-15.2-12.3-18.15-21.74-2.95-9.43-2.05-19.45,2.54-28.2,4.58-8.76,12.27-15.15,21.74-18.15,9.43-2.95,19.45-2.05,28.2,2.54l1.39-2.65c-9.46-4.96-20.29-5.93-30.49-2.74-10.13,3.17-18.54,10.15-23.5,19.61-4.96,9.46-5.93,20.29-2.74,30.49,3.19,10.2,10.15,18.54,19.61,23.5,9.46,4.96,20.29,5.93,30.49,2.74,.24-.07,.47-.15,.71-.23,9.87-3.28,17.95-10.14,22.79-19.39,2.88-5.49,4.41-11.39,4.56-17.55l-3-.07c-.14,5.69-1.56,11.15-4.22,16.23Z"/><path class="cls-11" d="M398.6,960.54c-1.7,10.83-11.9,18.26-22.73,16.55-5.25-.82-9.86-3.65-12.99-7.94-3.13-4.29-4.39-9.55-3.57-14.8,.82-5.25,3.65-9.86,7.94-12.99,4.3-3.13,9.55-4.39,14.8-3.57l.47-2.96c-6.04-.95-12.09,.51-17.03,4.11-4.94,3.6-8.18,8.9-9.13,14.94-.95,6.04,.51,12.08,4.11,17.02,3.6,4.94,8.9,8.18,14.94,9.13,3.67,.58,7.33,.27,10.76-.87,2.21-.74,4.33-1.82,6.27-3.23,4.94-3.6,8.19-8.91,9.13-14.94,.55-3.5,.3-6.98-.75-10.35l-2.86,.89c.91,2.92,1.13,5.95,.65,8.99Z"/><path class="cls-11" d="M388.88,987.29c-16.46,5.47-34.3-3.46-39.78-19.92-5.47-16.46,3.46-34.3,19.92-39.78l-.95-2.84c-18.03,6-27.81,25.54-21.82,43.56,6,18.03,25.54,27.81,43.56,21.82,18.03-6,27.81-25.54,21.82-43.56l-2.84,.95c5.47,16.46-3.46,34.3-19.92,39.78Z"/><path class="cls-11" d="M404.68,958.89c-.39,6.87-3.42,13.18-8.56,17.77-10.59,9.47-26.91,8.55-36.38-2.04-9.47-10.59-8.55-26.91,2.05-36.38l-2-2.23c-11.82,10.57-12.85,28.78-2.28,40.61,7.88,8.81,20,11.63,30.56,8.11,3.61-1.2,7.04-3.14,10.05-5.83,5.73-5.12,9.12-12.16,9.55-19.83,.43-7.67-2.15-15.05-7.27-20.78l-2.23,2c4.59,5.13,6.9,11.74,6.51,18.61Z"/><path class="cls-11" d="M392.42,940.54c2.2-.73,3.39-3.11,2.66-5.31-.73-2.2-3.11-3.39-5.31-2.66-2.2,.73-3.39,3.11-2.66,5.31,.73,2.2,3.11,3.39,5.31,2.66Z"/></g><text class="cls-7" transform="translate(470.67 1120.04)"><tspan class="cls-20" x="0" y="0">h</tspan><tspan x="6.61" y="0">ttps---fli</tspan><tspan class="cls-1" x="46.27" y="0">c</tspan><tspan x="51.53" y="0">.</tspan><tspan class="cls-19" x="54.01" y="0">k</tspan><tspan class="cls-24" x="59.84" y="0">r</tspan><tspan x="63.71" y="0">-</tspan><tspan class="cls-21" x="67.39" y="0">p</tspan><tspan class="cls-18" x="74.4" y="0">-2iq</tspan><tspan class="cls-16" x="93.8" y="0">R</tspan><tspan x="100.29" y="0">GkR</tspan></text><g><path class="cls-6" d="M367.84,828.59c-.48,1.09-.89,2.07-1.24,2.95l-.45,1.19-.16-1.2-.81-5.89h-3.85l-.09,.65,1.24,.16-2.12,8.23-1.07,.18-.07,.61h3.73l.05-.61-1.4-.18,1.38-5.74,.56-2.53,.38,2.46,.97,6.72,.93-.11,2.94-6.78,.95-2.3-.15,2.62-.33,5.67-1.22,.16-.05,.62h4.18l.04-.61-1.14-.18,.25-8.23,1.15-.16,.08-.65h-3.45c-.19,.46-.6,1.44-1.23,2.95Z"/><path class="cls-6" d="M379.56,834.56c-.09,.05-.17,.07-.25,.07-.09,0-.16-.04-.2-.12-.04-.08-.06-.2-.04-.36l.85-6.13h-1.75l-.77,5.72c-.19,.25-.43,.46-.71,.64-.28,.18-.56,.27-.84,.27-.25,0-.43-.08-.56-.23-.12-.15-.19-.4-.19-.75,0-.19,.04-.64,.13-1.32,.03-.13,.06-.36,.09-.69l.45-3.53-.3-.15-2.2,.23-.11,.54,.77,.45-.36,2.41c0,.08-.03,.23-.07,.45-.12,.9-.18,1.52-.18,1.87,0,.59,.18,1.02,.53,1.29,.34,.27,.76,.4,1.26,.4,.88,0,1.65-.39,2.3-1.18h.03c-.02,.12-.03,.21-.03,.28v.16c.03,.23,.12,.41,.28,.54,.16,.13,.4,.2,.71,.2,.4,0,.75-.11,1.06-.32,.31-.21,.52-.41,.64-.6l-.19-.41c-.16,.13-.28,.22-.37,.27Z"/><path class="cls-6" d="M384.2,827.96c-.56,0-1.05,.09-1.48,.27-.43,.18-.76,.43-1.01,.76-.24,.33-.36,.7-.36,1.13,0,.49,.13,.92,.38,1.26,.25,.35,.56,.65,.93,.91,.41,.28,.71,.53,.91,.75,.2,.22,.3,.47,.3,.74,0,.32-.12,.55-.35,.7s-.51,.23-.84,.23c-.34,0-.68-.07-.99-.21-.32-.14-.57-.29-.75-.45l-.27,1.13c.12,.11,.39,.21,.81,.3,.42,.09,.82,.14,1.22,.14,.53,0,1.01-.09,1.46-.26,.44-.17,.79-.43,1.06-.77,.27-.34,.4-.75,.4-1.24s-.12-.89-.36-1.2c-.24-.31-.58-.64-1.03-.97-.41-.29-.7-.54-.88-.75-.18-.21-.27-.44-.27-.71,0-.3,.11-.53,.32-.68,.22-.15,.5-.23,.85-.23,.32,0,.6,.07,.84,.2,.24,.13,.42,.26,.52,.38l.25-1.18c-.12-.06-.34-.12-.68-.17-.34-.05-.67-.08-.99-.08Z"/><path class="cls-6" d="M392.09,831.23c.46-.42,.69-.95,.69-1.59,0-.5-.17-.91-.5-1.22-.33-.31-.84-.47-1.52-.47-.76,0-1.45,.21-2.06,.64-.62,.42-1.11,1-1.46,1.73-.36,.73-.54,1.53-.54,2.42,0,.52,.09,1,.28,1.44,.19,.44,.48,.8,.89,1.07,.41,.27,.93,.41,1.57,.41,.68,0,1.28-.16,1.79-.48,.52-.32,.89-.66,1.12-1.02l-.34-.58c-.62,.71-1.31,1.06-2.06,1.06-.46,0-.8-.19-1.03-.58-.23-.39-.33-.9-.31-1.54,.57-.02,1.18-.13,1.83-.34,.64-.21,1.2-.52,1.65-.95Zm-3.48,.57c.05-.77,.23-1.46,.53-2.09,.3-.63,.71-.94,1.23-.94,.22,0,.39,.09,.51,.26,.12,.17,.18,.42,.18,.74,0,.4-.13,.75-.39,1.05-.26,.3-.58,.54-.97,.71-.38,.17-.75,.26-1.09,.28Z"/><path class="cls-6" d="M400.23,834.56c-.09,.05-.17,.07-.25,.07-.09,0-.16-.04-.2-.12-.04-.08-.06-.2-.04-.36l.85-6.13h-1.75l-.77,5.72c-.19,.25-.43,.46-.71,.64-.28,.18-.56,.27-.84,.27-.25,0-.43-.08-.56-.23-.12-.15-.19-.4-.19-.75,0-.19,.04-.64,.13-1.32,.03-.13,.06-.36,.09-.69l.45-3.53-.3-.15-2.2,.23-.11,.54,.77,.45-.36,2.41c0,.08-.03,.23-.07,.45-.12,.9-.18,1.52-.18,1.87,0,.59,.18,1.02,.53,1.29,.34,.27,.76,.4,1.26,.4,.88,0,1.65-.39,2.3-1.18h.03c-.02,.12-.03,.21-.03,.28v.16c.03,.23,.12,.41,.28,.54,.16,.13,.4,.2,.71,.2,.4,0,.75-.11,1.06-.32,.31-.21,.52-.41,.64-.6l-.19-.41c-.16,.13-.28,.22-.37,.27Z"/><path class="cls-6" d="M412.7,834.56c-.09,.05-.18,.07-.26,.07-.15,0-.22-.13-.22-.38,0-.31,.09-.87,.24-1.69l.07-.34,.05-.34c.18-1.02,.26-1.68,.26-1.96,0-1.3-.55-1.95-1.65-1.95-.52,0-1,.15-1.45,.44-.45,.29-.82,.69-1.13,1.2-.04-.57-.21-.99-.48-1.25-.28-.26-.66-.39-1.16-.39s-.95,.15-1.39,.45c-.44,.3-.82,.69-1.14,1.16l.13-1.47-.3-.15-2.06,.32-.11,.54,.67,.36-.85,6.3h1.72l.66-4.8c.24-.43,.54-.8,.89-1.11,.36-.31,.68-.46,.96-.46,.26,0,.43,.07,.54,.2,.1,.13,.16,.4,.17,.81,0,.56-.08,1.39-.24,2.49l-.38,2.89h1.79l.41-3.27c.08-.58,.14-1.13,.17-1.65,.24-.42,.52-.77,.85-1.05,.33-.27,.64-.41,.92-.41,.23,0,.39,.08,.48,.23,.09,.15,.14,.43,.14,.83,0,.33-.02,.66-.07,1.01-.05,.34-.13,.82-.23,1.42l-.05,.3c-.06,.34-.12,.69-.17,1.03-.05,.34-.08,.6-.08,.77,0,.28,.08,.51,.24,.67,.16,.17,.45,.25,.86,.25s.8-.11,1.11-.32c.31-.21,.52-.41,.65-.6l-.17-.41c-.16,.13-.28,.22-.38,.27Z"/><path class="cls-6" d="M421.39,827.96c-.86,0-1.59,.23-2.2,.68-.61,.45-1.07,1.03-1.38,1.73-.31,.7-.46,1.42-.46,2.16,0,.98,.22,1.74,.65,2.27,.43,.53,1.03,.8,1.79,.8,.64,0,1.2-.13,1.67-.4,.47-.27,.82-.57,1.04-.89l-.34-.58c-.25,.26-.5,.45-.76,.6-.26,.14-.58,.21-.95,.21-.43,0-.75-.17-.97-.51s-.32-.88-.32-1.61c0-.67,.09-1.28,.26-1.81,.17-.54,.4-.96,.68-1.26,.28-.3,.58-.45,.91-.45,.14,0,.31,.09,.5,.28s.41,.44,.65,.75l.36,.03,.45-1.72c-.18-.09-.43-.16-.72-.21-.3-.05-.58-.07-.85-.07Z"/><path class="cls-6" d="M427.47,827.94c-.79,0-1.48,.21-2.09,.62-.61,.41-1.08,.96-1.41,1.66-.33,.7-.5,1.46-.5,2.29,0,1.01,.24,1.78,.72,2.32,.48,.54,1.18,.81,2.1,.81,.79,0,1.48-.21,2.09-.63,.61-.42,1.08-.98,1.42-1.69,.34-.71,.5-1.47,.5-2.29,0-1-.24-1.76-.73-2.3-.49-.53-1.19-.8-2.11-.8Zm.7,4.96c-.13,.57-.34,1.05-.61,1.42-.27,.37-.61,.56-1.01,.56s-.7-.19-.89-.58c-.19-.39-.28-1-.28-1.84,0-.59,.07-1.17,.21-1.73,.14-.56,.35-1.03,.63-1.4,.28-.37,.63-.55,1.03-.55s.67,.19,.85,.56c.18,.37,.27,.98,.27,1.81,0,.6-.07,1.19-.2,1.76Z"/><path class="cls-6" d="M434.52,824.98l-.3-.17-2.25,.27-.12,.49,.83,.26-1.15,8.46c-.04,.28-.05,.44-.05,.48,0,.29,.12,.51,.33,.64s.49,.21,.82,.21c.43,0,.79-.1,1.06-.3,.27-.2,.48-.41,.62-.61l-.17-.41c-.16,.14-.28,.23-.38,.28-.09,.04-.18,.07-.26,.07-.16,0-.24-.11-.24-.33,0-.06,0-.11,.01-.14l1.24-9.17Z"/><path class="cls-6" d="M438.55,824.98l-.3-.17-2.25,.27-.12,.49,.83,.26-1.15,8.46c-.04,.28-.05,.44-.05,.48,0,.29,.12,.51,.33,.64s.49,.21,.82,.21c.43,0,.79-.1,1.06-.3,.27-.2,.48-.41,.62-.61l-.17-.41c-.16,.14-.28,.23-.38,.28-.09,.04-.18,.07-.26,.07-.16,0-.24-.11-.24-.33,0-.06,0-.11,.01-.14l1.24-9.17Z"/><path class="cls-6" d="M444.71,831.23c.46-.42,.69-.95,.69-1.59,0-.5-.17-.91-.5-1.22-.33-.31-.84-.47-1.52-.47-.76,0-1.45,.21-2.06,.64-.62,.42-1.11,1-1.46,1.73-.36,.73-.54,1.53-.54,2.42,0,.52,.09,1,.28,1.44,.19,.44,.48,.8,.89,1.07,.41,.27,.93,.41,1.57,.41,.68,0,1.28-.16,1.79-.48,.52-.32,.89-.66,1.12-1.02l-.34-.58c-.62,.71-1.31,1.06-2.06,1.06-.46,0-.8-.19-1.03-.58-.23-.39-.33-.9-.31-1.54,.57-.02,1.18-.13,1.83-.34,.64-.21,1.2-.52,1.65-.95Zm-3.48,.57c.05-.77,.23-1.46,.53-2.09,.3-.63,.71-.94,1.23-.94,.22,0,.39,.09,.51,.26,.12,.17,.18,.42,.18,.74,0,.4-.13,.75-.39,1.05-.26,.3-.58,.54-.97,.71-.38,.17-.75,.26-1.09,.28Z"/><path class="cls-6" d="M450.23,827.96c-.86,0-1.59,.23-2.2,.68-.61,.45-1.07,1.03-1.38,1.73-.31,.7-.46,1.42-.46,2.16,0,.98,.22,1.74,.65,2.27,.43,.53,1.03,.8,1.79,.8,.64,0,1.2-.13,1.67-.4s.82-.57,1.04-.89l-.34-.58c-.25,.26-.5,.45-.76,.6-.26,.14-.58,.21-.95,.21-.43,0-.75-.17-.97-.51-.21-.34-.32-.88-.32-1.61,0-.67,.09-1.28,.26-1.81,.17-.54,.4-.96,.68-1.26,.28-.3,.58-.45,.91-.45,.14,0,.31,.09,.5,.28,.19,.19,.41,.44,.65,.75l.36,.03,.45-1.72c-.18-.09-.43-.16-.72-.21s-.58-.07-.85-.07Z"/><path class="cls-6" d="M455.39,826.33h-.99c-.36,.97-.68,1.58-.94,1.83l-.79,.28-.15,.64h.79l-.56,4.1c-.09,.65-.13,1.07-.13,1.24,0,.42,.11,.72,.32,.91,.22,.19,.51,.28,.88,.28,.53,0,1.01-.11,1.43-.32s.75-.45,.98-.7l-.15-.49c-.15,.12-.34,.23-.56,.31-.23,.08-.43,.13-.6,.13-.19,0-.33-.04-.41-.13-.08-.08-.12-.23-.12-.43,0-.11,.03-.42,.09-.93l.54-3.98h1.59l.13-.94h-1.59l.23-1.8Z"/><path class="cls-6" d="M459.61,824.65c-.34,0-.61,.11-.83,.33-.22,.22-.32,.49-.32,.82,0,.24,.09,.45,.26,.63,.17,.18,.38,.27,.62,.27,.37,0,.66-.11,.86-.34,.2-.23,.3-.5,.3-.84,0-.24-.08-.44-.24-.62-.16-.17-.38-.26-.65-.26Z"/><path class="cls-6" d="M459.67,834.55c-.1,.05-.19,.08-.27,.08-.15,0-.22-.11-.22-.32,0-.06,0-.11,.01-.16l.85-6.04-.32-.15-2.28,.32-.09,.52,.78,.37-.21,1.54c-.31,2.21-.49,3.54-.54,4v.13c-.01,.24,.08,.43,.28,.56,.19,.14,.46,.21,.81,.21,.42,0,.78-.1,1.08-.3,.3-.2,.52-.41,.67-.61l-.17-.41c-.15,.12-.27,.21-.37,.26Z"/><path class="cls-6" d="M465.28,827.94c-.79,0-1.48,.21-2.09,.62-.61,.41-1.08,.96-1.41,1.66-.33,.7-.5,1.46-.5,2.29,0,1.01,.24,1.78,.72,2.32,.48,.54,1.18,.81,2.1,.81,.79,0,1.48-.21,2.09-.63,.61-.42,1.08-.98,1.42-1.69,.34-.71,.5-1.47,.5-2.29,0-1-.24-1.76-.73-2.3-.49-.53-1.19-.8-2.11-.8Zm.7,4.96c-.13,.57-.34,1.05-.61,1.42-.27,.37-.61,.56-1.01,.56s-.7-.19-.89-.58c-.19-.39-.28-1-.28-1.84,0-.59,.07-1.17,.21-1.73,.14-.56,.35-1.03,.63-1.4,.28-.37,.63-.55,1.03-.55s.67,.19,.85,.56c.18,.37,.27,.98,.27,1.81,0,.6-.07,1.19-.2,1.76Z"/><path class="cls-6" d="M475.81,834.56c-.09,.04-.17,.07-.25,.07-.14,0-.21-.11-.21-.33v-.05c0-.31,.07-.81,.2-1.51,.03-.12,.06-.3,.09-.53,.22-1.19,.33-1.96,.33-2.3,0-1.3-.55-1.95-1.64-1.95-.49,0-.97,.15-1.42,.44-.45,.29-.84,.68-1.16,1.16l.13-1.46-.3-.15-2.06,.32-.11,.54,.67,.36-.85,6.3h1.73l.64-4.71c.26-.46,.56-.85,.92-1.18,.36-.33,.68-.49,.97-.49,.24,0,.4,.08,.5,.23,.09,.15,.14,.43,.14,.83,0,.23-.02,.5-.05,.81-.04,.31-.08,.64-.14,.99-.06,.34-.09,.56-.11,.64l-.08,.45c-.16,.79-.24,1.31-.25,1.57,0,.3,.08,.54,.24,.72,.16,.18,.44,.27,.86,.27s.8-.1,1.1-.3c.3-.2,.52-.39,.65-.58l-.19-.41c-.14,.11-.26,.19-.34,.24Z"/><path class="cls-6" d="M480.59,828.81c.32,0,.6,.07,.84,.2,.24,.13,.42,.26,.52,.38l.25-1.18c-.12-.06-.34-.12-.68-.17-.34-.05-.67-.08-.99-.08-.56,0-1.05,.09-1.48,.27-.43,.18-.76,.43-1.01,.76-.24,.33-.36,.7-.36,1.13,0,.49,.13,.92,.38,1.26,.25,.35,.56,.65,.93,.91,.41,.28,.71,.53,.91,.75,.2,.22,.3,.47,.3,.74,0,.32-.12,.55-.35,.7s-.51,.23-.84,.23c-.34,0-.68-.07-.99-.21s-.57-.29-.75-.45l-.27,1.13c.12,.11,.39,.21,.81,.3,.42,.09,.82,.14,1.22,.14,.53,0,1.01-.09,1.46-.26,.44-.17,.79-.43,1.06-.77,.27-.34,.4-.75,.4-1.24s-.12-.89-.36-1.2c-.24-.31-.58-.64-1.03-.97-.41-.29-.7-.54-.88-.75-.18-.21-.27-.44-.27-.71,0-.3,.11-.53,.32-.68,.22-.15,.5-.23,.85-.23Z"/><path class="cls-6" d="M334.08,829.02c-3.93,7.51-10.53,12.98-18.66,15.58-8.1,2.53-16.69,1.76-24.21-2.18-7.51-3.94-13.05-10.56-15.58-18.66-2.53-8.1-1.76-16.69,2.18-24.21,3.93-7.52,10.54-13.01,18.66-15.58,8.1-2.53,16.69-1.76,24.21,2.18l1.19-2.28c-8.12-4.25-17.42-5.09-26.17-2.35-8.7,2.72-15.91,8.71-20.17,16.84-4.25,8.12-5.09,17.42-2.35,26.17,2.73,8.75,8.71,15.91,16.84,20.17,8.12,4.25,17.42,5.09,26.17,2.35,.2-.06,.41-.13,.61-.2,8.48-2.82,15.4-8.71,19.56-16.64,2.47-4.71,3.78-9.78,3.91-15.06l-2.57-.06c-.12,4.89-1.34,9.57-3.62,13.93Z"/><path class="cls-6" d="M322.81,816.94c-1.46,9.3-10.22,15.67-19.51,14.21-4.5-.71-8.46-3.13-11.15-6.81-2.68-3.69-3.77-8.2-3.06-12.7,.71-4.5,3.13-8.46,6.82-11.15,3.69-2.68,8.2-3.77,12.7-3.06l.4-2.54c-5.18-.82-10.37,.44-14.62,3.53-4.24,3.09-7.03,7.64-7.84,12.83-.82,5.18,.44,10.37,3.53,14.61,3.09,4.24,7.64,7.03,12.83,7.84,3.15,.49,6.3,.23,9.23-.75,1.9-.63,3.71-1.56,5.38-2.78,4.24-3.09,7.03-7.64,7.84-12.83,.47-3.01,.26-6-.64-8.88l-2.46,.76c.78,2.51,.97,5.1,.56,7.72Z"/><path class="cls-6" d="M314.47,839.91c-14.13,4.7-29.45-2.97-34.14-17.1-4.7-14.13,2.97-29.45,17.1-34.14l-.81-2.44c-15.47,5.15-23.87,21.92-18.73,37.39,5.15,15.47,21.92,23.87,37.39,18.73,15.47-5.15,23.88-21.92,18.73-37.39l-2.44,.81c4.7,14.13-2.97,29.45-17.1,34.14Z"/><path class="cls-6" d="M328.03,815.53c-.33,5.9-2.94,11.31-7.35,15.25-9.09,8.13-23.1,7.34-31.23-1.75-8.12-9.09-7.34-23.1,1.76-31.23l-1.72-1.92c-10.15,9.07-11.03,24.71-1.96,34.86,6.76,7.56,17.17,9.98,26.23,6.96,3.1-1.03,6.04-2.7,8.62-5.01,4.92-4.39,7.83-10.44,8.2-17.02,.37-6.58-1.85-12.92-6.24-17.83l-1.92,1.72c3.94,4.4,5.92,10.08,5.59,15.97Z"/><path class="cls-6" d="M317.51,799.78c1.89-.63,2.91-2.67,2.28-4.56-.63-1.89-2.67-2.91-4.56-2.28-1.89,.63-2.91,2.67-2.28,4.56,.63,1.89,2.67,2.91,4.56,2.28Z"/><path class="cls-6" d="M362.95,815.1h9.56l1.53,5.14h7.29l-9.65-27.67h-7.8l-9.58,27.67h7.21l1.45-5.14Zm4.69-16.98l.89,3.59,2.55,8.58h-6.78l2.41-8.58,.92-3.59Z"/><path class="cls-6" d="M405.69,819.1v-5.66c-.31,.26-.78,.52-1.42,.79-.64,.27-1.36,.5-2.16,.69-.8,.19-1.59,.29-2.37,.29-1.71,0-3.15-.38-4.31-1.14-1.16-.76-2.03-1.81-2.62-3.17s-.88-2.94-.88-4.75,.33-3.28,1-4.5c.67-1.23,1.57-2.16,2.7-2.79s2.4-.95,3.81-.95c1.1,0,2.03,.1,2.78,.29,.76,.19,1.38,.41,1.85,.67s.84,.47,1.1,.64l.89-5.92c-.55-.11-1.14-.25-1.77-.42-.62-.17-1.36-.33-2.22-.47-.86-.14-1.92-.21-3.19-.21-1.97,0-3.81,.3-5.51,.89s-3.19,1.48-4.48,2.66-2.28,2.65-3,4.41-1.07,3.8-1.07,6.13c0,2.84,.54,5.3,1.64,7.4,1.09,2.1,2.69,3.72,4.79,4.86,2.1,1.15,4.67,1.72,7.7,1.72,1.07,0,2.03-.08,2.87-.24,.84-.16,1.58-.35,2.21-.57s1.19-.43,1.66-.63Z"/><polygon class="cls-6" points="436.89 805.78 438.04 820.25 444.66 820.25 441.26 792.76 432.27 792.76 429.31 806.86 428.31 813.29 427.05 806.86 423.73 792.76 414.44 792.76 411.26 820.25 417.62 820.25 418.7 805.78 419.18 797.87 420.99 806.01 424.98 820.39 431.09 820.39 434.79 806.01 436.49 797.87 436.89 805.78"/><polygon class="cls-6" points="470.3 814.99 458.69 814.99 458.69 808.71 466.83 808.71 466.83 803.71 458.69 803.71 458.69 797.91 469.23 797.91 469.23 792.76 451.85 792.76 451.85 820.25 470.3 820.25 470.3 814.99"/></g></svg>